<svg xmlns="http://www.w3.org/2000/svg" aria-hidden="true" style="position:absolute;width:0;height:0;overflow:hidden">
  <defs>
    <symbol id="icon-header-logo" viewBox="0 0 164 32">
      <path d="M109.894 1.987v6.081a4.9 4.9 0 0 0-.877-.839l-.013-.009c-1.1-.783-2.384-1.075-3.818-.874-1.94.279-3.348 1.286-4.186 2.992-.546 1.109-.707 2.354-.484 3.7.285 1.714 1.144 3.014 2.555 3.865a5.9 5.9 0 0 0 3.088.861h.047-.002a7.4 7.4 0 0 0 1.435-.145l-.047.008c1.486-.283 2.655-1.037 3.471-2.241.665-.984.984-2.163.984-3.621V1.987zm0 10.105c-.038 1.093-.418 2.016-1.093 2.674s-1.587.984-2.635.946c-1.075-.037-1.985-.424-2.623-1.118s-.965-1.63-.927-2.706c.075-2.11 1.552-3.551 3.613-3.551h.157c1.032.037 1.951.431 2.587 1.108s.959 1.62.922 2.646zM120.094 6.363c-1.742-.248-3.396.146-4.656 1.114-1.166.896-1.886 2.186-2.077 3.743-.414 3.279 1.607 6.003 4.803 6.47.307.048.662.075 1.023.075 2.708 0 4.681-1.627 5.24-3.359l.09-.277h-.746c-.376 0-.765 0-1.142-.007a.71.71 0 0 0-.558.272l-.001.002-.068.071a5 5 0 0 1-.798.726l-.014.01c-.642.42-1.421.57-2.514.492-1.53-.109-2.698-1.108-3.055-2.602a3 3 0 0 1-.043-.237h9.308l.015-.195c.263-3.318-1.668-5.849-4.808-6.299zm-4.442 4.505c.25-1.169 1.283-2.394 3.094-2.514 1.981-.131 3.476.849 3.873 2.514zM159.703 11.44a5.2 5.2 0 0 0-1.316-3.268l.005.005c-.984-1.129-2.306-1.757-3.943-1.869-1.483-.101-2.797.23-3.903.984-1.375.937-2.173 2.307-2.371 4.073-.178 1.586.156 2.979.996 4.142.984 1.361 2.371 2.114 4.129 2.237q.237.016.464.016c1.356 0 2.485-.437 3.361-1.318q.331-.345.605-.745l.013-.02v1.79h1.931l.056-.168a.3.3 0 0 0 .024-.115v-1.683c-.004-1.331-.002-2.708-.05-4.062zm-5.734 4.276h-.014c-2.138 0-3.637-1.507-3.649-3.669-.007-1.077.341-2.001 1.006-2.675s1.574-1.032 2.638-1.035h.018c1.051 0 1.957.352 2.623 1.018s1.026 1.598 1.027 2.673c0 2.165-1.5 3.682-3.648 3.689zM147.203 12.925h-2.085v.719c-.049.998-.51 1.689-1.298 1.945a3.015 3.015 0 0 1-1.55.067l.02.004c-.788-.155-1.268-.613-1.468-1.402a3.6 3.6 0 0 1-.109-.894 271 271 0 0 1 0-3.607V8.579h5.918V6.556h-5.924V2.848h-2.153v10.17c0 .387.021.779.058 1.166.168 1.716 1.262 2.991 2.927 3.412.396.102.85.161 1.318.161h.034-.002q.405-.001.798-.046l-.033.003c1.668-.177 2.896-1.19 3.368-2.78a4.9 4.9 0 0 0 .192-1.832l.001.018zM136.719 10.164c-.373-1.72-1.346-2.889-2.894-3.474-1.167-.437-2.438-.521-3.776-.237-1.489.317-2.58 1.126-3.244 2.404-.437.839-.639 1.786-.643 2.98v5.199q.001.088.011.178l.02.273h2.126V15.41c0-1.256 0-2.555.01-3.832.007-.765.183-1.401.538-1.933.706-1.057 1.76-1.454 3.316-1.249 1.186.156 1.967.791 2.313 1.887.151.495.239 1.065.24 1.655v.001c.023 1.202.019 2.428.015 3.613v1.927h2.138l.013-.268v-1.542c0-1.274 0-2.594-.01-3.89a8 8 0 0 0-.182-1.67l.01.053zM161.815 1.988h2.125v15.488h-2.125zM93.982 11.476c-.149-1.725-.874-3.085-2.161-4.044s-2.857-1.325-4.637-1.058c-1.613.243-2.884 1.013-3.777 2.295-.811 1.161-1.14 2.52-.976 4.044.204 1.889 1.103 3.316 2.672 4.242a5.86 5.86 0 0 0 3.002.817h.061-.003a7.6 7.6 0 0 0 1.154-.091l-.042.005c1.368-.208 2.502-.81 3.368-1.789a4.7 4.7 0 0 0 .89-1.441l.011-.032.109-.286h-.732c-.473 0-.92 0-1.373.008a.5.5 0 0 0-.327.194l-.001.001-.019.021q-.11.115-.219.238a3.4 3.4 0 0 1-.361.374l-.003.003c-.579.483-1.318.721-2.325.746-1.717.042-3.015-.832-3.503-2.342-.05-.156-.086-.322-.125-.498l.001-.008-.001-.008h9.325v-.595a7 7 0 0 0-.011-.819l.001.023zm-2.272-.607h-6.97c.258-1.191 1.32-2.427 3.177-2.52 1.928-.099 3.419.905 3.792 2.518zM57.913 6.411c-1.795-.34-3.513.009-4.841.984-1.208.882-1.986 2.234-2.186 3.806-.219 1.662.19 3.243 1.145 4.45.936 1.185 2.354 1.925 3.996 2.084q.346.033.677.033c2.741 0 4.719-1.661 5.24-3.362l.084-.273h-.696q-.657-.002-1.305.007a.53.53 0 0 0-.384.217l-.001.002c-.546.772-1.312 1.202-2.322 1.327-1.125.133-2.041-.049-2.801-.559s-1.233-1.255-1.413-2.256h9.29l.019-.191c.248-2.568-1.055-5.617-4.501-6.268zm-4.752 4.459c.208-1.286 1.599-2.439 3.108-2.523 1.984-.109 3.474.874 3.874 2.523zM81.445 12.92h-2.061v.685c-.045 1.173-.627 1.887-1.685 2.068a3.767 3.767 0 0 1-.964.015l.017.002c-.861-.078-1.471-.607-1.671-1.451a4 4 0 0 1-.109-.924v-.001a264 264 0 0 1 0-3.444V8.558h5.924V6.559h-5.934V2.851h-2.149v10.131q0 .565.055 1.165c.152 1.662 1.192 2.937 2.784 3.408.444.135.954.213 1.483.213h.012-.001a6 6 0 0 0 1.257-.135l-.039.007c2.538-.528 3.257-2.768 3.103-4.526zM64.082 1.977h2.121v15.498h-2.121zM68.649 6.572h2.122v10.902h-2.122zM69.697 2.186h-.011c-.793 0-1.435.642-1.435 1.435v.031-.002.023c0 .401.159.766.417 1.034.261.266.625.431 1.027.431h.01-.001.021c.795 0 1.439-.644 1.439-1.439l-.001-.038v.002-.036c0-.795-.644-1.439-1.439-1.439h-.03.001zM87.793 27.369c0 1.543-1.151 2.668-2.719 2.639-.786-.014-1.475-.269-2.01-.874a2.56 2.56 0 0 1-.64-1.699l.002-.104v.005c.017-1.66 1.333-2.745 2.982-2.591a2.57 2.57 0 0 1 1.668.771l.001.001c.497.517.712 1.144.717 1.853zm-2.669 1.87c1.093-.021 1.847-.797 1.831-1.891s-.79-1.867-1.858-1.845c-1.112.023-1.85.797-1.83 1.916.014 1.073.8 1.839 1.857 1.82m47.726-1.989c0 1.665-1.151 2.788-2.718 2.759-.786-.014-1.475-.268-2.01-.874a2.56 2.56 0 0 1-.638-1.804v.005c.016-1.661 1.336-2.745 2.98-2.591a2.57 2.57 0 0 1 1.678.78l.001.001c.433.447.701 1.054.707 1.725v.001zm-2.684-1.749c-1.093 0-1.849.775-1.845 1.875s.771 1.863 1.847 1.858 1.842-.772 1.845-1.858-.761-1.874-1.845-1.873zm-27.791 2.615c-.025.691-.386 1.07-1.068 1.121-.504.038-.93-.16-1.093-.556a1.9 1.9 0 0 1-.137-.669v-.002c-.016-.752-.007-1.504 0-2.257 0-.038 0-.078.009-.128h2.819v-.765h-2.838V23.1h-.828v4.799q0 .234.026.462l-.002-.019c.075.642.351 1.157.95 1.45a2.34 2.34 0 0 0 1.401.185l-.014.002c1.209-.16 1.639-1.139 1.573-2.086h-.797c.001.085.003.151 0 .222zm21.46.006c-.026.722-.462 1.136-1.181 1.117-.595-.014-.961-.292-1.081-.831a2 2 0 0 1-.04-.406v-.013.001-2.365h2.831v-.765h-2.842V23.1h-.824v4.808q0 .234.026.462l-.002-.019c.076.636.345 1.161.944 1.439.295.145.641.23 1.008.23s.713-.085 1.021-.236l-.014.006c.765-.348 1.021-1.23.945-1.901h-.792c.002.089.004.16.001.232zm-26.236-3.068c-.529-.328-1.109-.375-1.708-.279a1.8 1.8 0 0 0-1.029.5c-.781.785-.498 1.98.546 2.295.318.094.656.123.984.188.341.054.636.123.923.209l-.049-.013c.279.094.376.339.315.627a.75.75 0 0 1-.502.555l-.005.001a1.896 1.896 0 0 1-1.387-.004l.013.005a.76.76 0 0 1-.517-.541l-.001-.005c-.027-.126-.078-.148-.187-.143-.179.007-.361 0-.546 0-.043 0-.085 0-.136.007.013.472.253.886.615 1.137l.005.003c.515.369 1.102.449 1.714.402.447-.018.855-.17 1.189-.417l-.006.004a1.46 1.46 0 0 0 .57-1.498l.002.01c-.092-.546-.485-.819-.984-.948-.328-.085-.672-.12-1.008-.187a6 6 0 0 1-.871-.204l.046.012c-.249-.085-.342-.271-.328-.536.02-.31.202-.504.468-.628a1.5 1.5 0 0 1 .761-.115l-.006-.001c.256.003.493.085.688.221l-.004-.003a.77.77 0 0 1 .305.534v.003h.811a1.4 1.4 0 0 0-.676-1.189l-.006-.003zm-16.125.773c-.53-.752-1.279-1.077-2.172-1.093-1.565-.027-2.707 1.071-2.722 2.611l-.002.103a2.55 2.55 0 0 0 2.382 2.544h.008c.858.074 1.628-.134 2.253-.765.296-.302.511-.684.612-1.11l.003-.016h-.765a.14.14 0 0 0-.094.069v.001c-.299.709-1.032 1.126-1.875 1.051-.751-.066-1.312-.431-1.554-1.154-.262-.765-.162-1.484.424-2.077.765-.765 2.456-.693 3.001.557.014.035.057.08.087.08.256.007.513 0 .778 0a2.3 2.3 0 0 0-.366-.81l.005.007zm38.071-.009c-.533-.75-1.284-1.071-2.177-1.084-1.56-.022-2.695 1.073-2.712 2.608-.008.765.231 1.428.79 1.954.887.833 2.398.954 3.418.289a2.44 2.44 0 0 0 1.045-1.464l.003-.017h-.78a.12.12 0 0 0-.084.065v.001c-.307.673-.844 1-1.562 1.06-.765.063-1.467-.308-1.789-.953-.348-.695-.24-1.612.236-2.174.745-.881 2.533-.842 3.103.437.019.042.068.095.104.096.251.008.504 0 .771 0a2.3 2.3 0 0 0-.369-.825l.005.007zm19.017 3.947v-2.476q0-.387-.072-.754l.004.025c-.154-.789-.584-1.365-1.348-1.651a3 3 0 0 0-1.035-.181q-.298 0-.582.055l.019-.003a2.17 2.17 0 0 0-1.297.667l-.001.001a2.28 2.28 0 0 0-.593 1.538c-.024.946-.015 1.894-.019 2.842a.2.2 0 0 0 .013.04v-.001h.816v-2.544q0-.24.032-.471l-.002.018c.087-.587.365-1.04.942-1.254a1.904 1.904 0 0 1 1.249-.025l-.014-.004c.425.12.759.43.911.83l.003.009c.095.248.151.535.151.835l-.001.073v-.004 2.539h.816c.003-.043.008-.074.008-.105zm-45.057-.007c0-.82.008-1.639 0-2.461a4.2 4.2 0 0 0-.097-.876l.005.028c-.164-.716-.575-1.242-1.265-1.518a3.054 3.054 0 0 0-1.673-.149l.019-.003a2.17 2.17 0 0 0-1.31.685l-.001.002a2.28 2.28 0 0 0-.58 1.514v.001c-.024.948-.015 1.895-.02 2.842a.2.2 0 0 0 .013.046v-.001h.817v-.173q-.001-1.278.005-2.557l-.001-.041c0-.398.136-.765.364-1.056l-.003.004c.31-.385.733-.518 1.202-.546.746-.037 1.353.328 1.568.992.079.251.125.54.126.84v.001c.016.792 0 1.587 0 2.38v.151h.82a.6.6 0 0 0 .01-.103zm19.526-4.73c0 .793.011 1.586 0 2.379a3 3 0 0 1-.131.86l.006-.021c-.219.656-.812 1.02-1.559.984-.537-.023-.999-.192-1.312-.666a1.75 1.75 0 0 1-.272-.942v-.027.001c-.008-.861 0-1.722 0-2.584v-.145h-.827v.087c0 .838-.007 1.677 0 2.514q.004.396.082.767l-.004-.025c.161.778.597 1.339 1.351 1.616a3.081 3.081 0 0 0 1.591.125l-.019.003a2.23 2.23 0 0 0 1.129-.493l-.004.003c.532-.45.765-1.052.784-1.727.027-.928.012-1.858.014-2.787a1 1 0 0 0-.014-.095l.001.005h-.811zm-8.171 4.831v-2.907q0-.23.033-.451l-.002.017c.071-.437.285-.784.726-.93.154-.049.331-.08.514-.085h.003c.663-.025 1.121.301 1.262.894.042.178.051.365.076.555h.813c-.024-.219-.034-.437-.074-.65-.117-.608-.423-1.085-.995-1.355a2.597 2.597 0 0 0-1.578-.171l.017-.003a1.85 1.85 0 0 0-1.151.622l-.002.002a2 2 0 0 0-.456 1.271v.028-.001c-.015 1.042-.011 2.085-.014 3.127q.003.023.01.044v-.001zm21.632-4.984h-.812v4.995h.812zm-.406-2.098h-.009a.587.587 0 0 0-.587.587v.027c0 .327.264.592.59.593a.604.604 0 0 0 .008-1.202h-.002zM25.294 0H8.374v13.437L0 17.911V32h25.294c8.823 0 16.001-7.177 16.001-15.999S34.118 0 25.294 0M9.89 24.154v-9.808l7.077-3.782 13.771 8.416v5.268zm22.358 1.609v-7.636L17.017 8.818 9.89 12.627V1.516h15.404c7.987 0 14.489 6.498 14.489 14.485s-6.502 14.484-14.489 14.484H1.516V18.821l6.858-3.665v10.513z"/>
    </symbol>
    <symbol id="icon-auth-logo" viewBox="0 0 41 32">
      <path d="M24.224 0h-9.106v7.282l-4.506 2.425v7.639h13.612c4.748 0 8.61-3.89 8.61-8.672S28.972 0 24.224 0m-8.29 13.094V7.775l3.808-2.049 7.408 4.559v2.855zm12.032.872V9.824L19.769 4.78l-3.835 2.064V.823h8.29c4.298 0 7.794 3.521 7.794 7.85s-3.497 7.849-7.794 7.849H11.428v-6.32l3.69-1.986v5.696zM21.211 21.932v2.183a1.8 1.8 0 0 0-.315-.301l-.005-.003c-.395-.281-.856-.386-1.37-.312-.697.1-1.202.462-1.503 1.075-.196.398-.254.845-.174 1.329.103.616.412 1.082.917 1.388.316.194.699.309 1.109.309h.017-.001q.266-.001.515-.052l-.017.003c.534-.103.953-.372 1.246-.804.24-.351.355-.777.355-1.3v-3.514zm0 3.629c-.013.392-.15.724-.394.962s-.57.354-.947.34c-.386-.014-.712-.153-.944-.402s-.346-.584-.333-.972c.027-.758.557-1.275 1.298-1.275h.056c.371.013.701.154.929.398s.348.58.335.949M24.874 23.504c-.625-.089-1.219.053-1.672.4-.419.322-.677.787-.748 1.344-.149 1.179.577 2.156 1.725 2.323.11.017.238.027.367.027.972 0 1.681-.584 1.882-1.206l.032-.1h-.268c-.135 0-.275 0-.41-.002a.25.25 0 0 0-.2.097v.001l-.024.025a2 2 0 0 1-.286.261l-.005.003c-.23.151-.508.206-.901.177a1.184 1.184 0 0 1-1.097-.935q-.01-.04-.016-.085h3.343l.006-.069c.095-1.193-.599-2.101-1.726-2.263zm-1.596 1.618c.09-.42.461-.859 1.111-.903.711-.047 1.248.305 1.391.903zM39.097 25.327a1.87 1.87 0 0 0-.474-1.173l.002.002c-.352-.405-.828-.631-1.416-.671-.533-.036-1.004.082-1.401.353-.494.336-.78.828-.851 1.463-.064.569.056 1.07.358 1.488.352.488.851.759 1.483.803q.085.006.167.006c.487 0 .893-.159 1.207-.473q.119-.123.217-.268l.005-.007v.643h.693l.02-.06a.1.1 0 0 0 .009-.042v-.604c0-.478.001-.973-.017-1.459zm-2.061 1.535h-.005c-.767 0-1.305-.541-1.31-1.317-.002-.386.123-.719.361-.962s.567-.368.949-.371h.006c.378 0 .703.126.941.365s.369.574.369.96c.001.778-.538 1.322-1.31 1.324zM34.608 25.86h-.749v.257c-.017.358-.183.606-.466.698a1.1 1.1 0 0 1-.557.025l.007.001c-.283-.056-.455-.22-.527-.503a1.3 1.3 0 0 1-.039-.32v-.001c-.003-.432-.003-.872-.002-1.297v-.421H34.4v-.724h-2.127v-1.332H31.5v3.652c0 .137.007.28.021.419.06.616.453 1.074 1.051 1.225.141.037.304.058.471.058h.015-.001q.146 0 .286-.016l-.012.001c.599-.064 1.04-.428 1.21-.998a1.8 1.8 0 0 0 .068-.659v.006zM30.844 24.868c-.134-.618-.483-1.037-1.039-1.248a2.4 2.4 0 0 0-1.356-.085c-.535.114-.927.404-1.165.864-.156.301-.23.641-.231 1.07q-.002.718 0 1.435v.431q-.001.031.004.064l.007.098h.763v-.747c0-.451 0-.917.003-1.376q.003-.41.193-.694c.253-.38.632-.522 1.191-.449q.64.086.83.677c.054.178.086.383.087.595.008.432.007.872.005 1.297v.692h.768l.004-.096v-.553c0-.458.002-.931-.003-1.397a3 3 0 0 0-.065-.598l.003.019zM39.855 21.933h.763v5.562h-.763zM15.497 25.339c-.054-.618-.315-1.108-.776-1.452-.467-.348-1.027-.475-1.665-.378-.579.087-1.035.364-1.356.824-.292.417-.409.905-.351 1.45.073.678.396 1.191.959 1.523a2.1 2.1 0 0 0 1.078.293h.022-.001q.212 0 .414-.033l-.015.002a1.96 1.96 0 0 0 1.21-.642c.135-.149.245-.325.32-.517l.004-.011.038-.103h-.263c-.17 0-.33 0-.493.003-.054 0-.091.041-.119.071l-.007.007q-.04.042-.077.086a1.4 1.4 0 0 1-.129.134l-.001.001c-.208.174-.474.259-.835.268-.617.015-1.083-.299-1.258-.841q-.026-.084-.045-.179v-.006H15.5v-.079q0-.07.002-.137l.002-.106a2 2 0 0 0-.007-.187l.001.008zm-.816-.218h-2.503c.093-.428.474-.872 1.141-.905.692-.035 1.228.326 1.362.905M2.545 23.521c-.644-.122-1.262.003-1.739.352A1.98 1.98 0 0 0 .02 25.24c-.078.597.069 1.164.412 1.598.336.425.846.691 1.435.748q.125.012.243.012c.984 0 1.695-.597 1.882-1.207l.03-.099h-.25q-.235 0-.469.002a.2.2 0 0 0-.137.076c-.197.277-.47.433-.834.476-.404.048-.733-.018-1.006-.201s-.443-.451-.508-.81h3.338l.007-.069c.087-.918-.381-2.013-1.618-2.247zM.839 25.122c.075-.461.574-.876 1.116-.907.712-.039 1.248.314 1.391.906zM10.995 25.858h-.741v.247c-.016.421-.225.678-.605.742a1.3 1.3 0 0 1-.346.005l.006.001a.65.65 0 0 1-.6-.521A1.4 1.4 0 0 1 8.671 26c-.003-.412-.002-.832-.002-1.237v-.47h2.127v-.721h-2.13v-1.33h-.772v3.641q0 .203.02.418a1.36 1.36 0 0 0 1 1.223c.16.049.343.077.533.077h.004q.232 0 .449-.049l-.014.003c.911-.19 1.17-.994 1.114-1.625zM4.76 21.929h.762v5.565H4.76zM6.4 23.579h.762v3.915H6.4zM6.776 22.005h-.004a.515.515 0 0 0-.515.515v.013-.001.007a.517.517 0 0 0 .518.526h.005a.517.517 0 0 0 .524-.531v-.012a.517.517 0 0 0-.517-.517zh.001zM13.275 31.047c0 .554-.412.958-.976.948-.282-.005-.53-.097-.721-.313a.92.92 0 0 1-.229-.646c.006-.596.479-.985 1.071-.93a.92.92 0 0 1 .599.277c.178.184.255.41.257.664zm-.959.672c.393-.008.663-.286.657-.679s-.284-.67-.668-.663c-.399.008-.665.286-.657.687.007.386.288.662.668.655m17.14-.715c0 .598-.412 1.001-.976.991-.282-.005-.53-.096-.721-.313a.92.92 0 0 1-.229-.646c.006-.597.481-.986 1.071-.931a.93.93 0 0 1 .603.28.9.9 0 0 1 .252.617zm-.966-.627c-.391 0-.664.278-.662.673s.277.669.663.668.661-.277.662-.669-.273-.673-.663-.672m-9.979.938q-.013.373-.384.403c-.181.014-.334-.057-.393-.2a.7.7 0 0 1-.049-.24v-.001c-.006-.27-.002-.541-.002-.811q0-.02.003-.046h1.012v-.275h-1.017v-.631h-.298v1.726q0 .083.009.164l-.001-.007c.027.23.126.416.341.521a.85.85 0 0 0 .503.066l-.005.001c.434-.057.591-.409.565-.749h-.286q.003.041 0 .079zm7.706.002c-.01.259-.166.407-.425.401q-.32-.009-.388-.298a.7.7 0 0 1-.015-.144v-.856h1.017v-.275h-1.02v-.632h-.296v1.726q0 .085.009.168l-.001-.007c.028.228.124.417.339.517a.835.835 0 0 0 .729-.002l-.005.002c.275-.125.366-.442.339-.683h-.285v.083zm-9.421-1.101c-.19-.118-.398-.135-.614-.1a.66.66 0 0 0-.369.179c-.28.282-.179.711.199.822.114.034.235.044.352.069.123.019.229.044.333.076l-.017-.004c.1.034.135.122.113.225a.27.27 0 0 1-.18.199l-.002.001a.68.68 0 0 1-.498-.001l.005.002c-.092-.034-.164-.097-.186-.196-.01-.045-.028-.053-.069-.052q-.098.001-.194 0-.022 0-.049.003c.005.17.091.318.221.408l.002.001c.184.132.396.161.615.144a.76.76 0 0 0 .427-.15l-.002.002a.53.53 0 0 0 .206-.535c-.034-.198-.174-.294-.352-.34-.119-.031-.24-.043-.362-.069a2 2 0 0 1-.313-.073l.017.004c-.09-.03-.123-.098-.117-.192.007-.112.072-.181.168-.226a.55.55 0 0 1 .273-.041h-.002a.44.44 0 0 1 .247.081l-.001-.001a.27.27 0 0 1 .109.192v.001h.291a.5.5 0 0 0-.248-.426l-.002-.001zm-5.79.277c-.191-.27-.46-.386-.78-.392-.562-.01-.972.384-.977.938a.923.923 0 0 0 .854.953h.003c.309.026.584-.048.809-.275a.85.85 0 0 0 .22-.398l.001-.006h-.275a.05.05 0 0 0-.034.025c-.107.255-.37.404-.673.378-.27-.023-.469-.155-.558-.415-.094-.273-.058-.533.152-.745.273-.275.882-.249 1.078.2.005.012.021.028.032.029q.137.002.28 0a.8.8 0 0 0-.131-.293l.002.002zm13.67-.003c-.191-.269-.461-.385-.781-.389-.56-.008-.968.385-.974.936a.9.9 0 0 0 .284.702c.319.299.861.343 1.227.103a.88.88 0 0 0 .377-.525l.001-.006h-.281a.05.05 0 0 0-.03.023c-.11.24-.303.359-.561.38a.65.65 0 0 1-.643-.343.74.74 0 0 1 .085-.781c.268-.316.91-.302 1.114.156.007.015.024.034.037.034.09.003.181 0 .277 0a.8.8 0 0 0-.134-.293zm6.83 1.419q.002-.444 0-.889 0-.14-.026-.271l.001.009c-.055-.283-.21-.49-.484-.593a1.1 1.1 0 0 0-.58-.045l.007-.001a.8.8 0 0 0-.466.24.82.82 0 0 0-.213.552c-.009.34-.006.68-.007 1.02l.005.014h.293v-.916q0-.085.011-.167l-.001.006c.032-.211.131-.374.338-.45a.67.67 0 0 1 .449-.009l-.005-.001a.49.49 0 0 1 .327.298l.001.003a.9.9 0 0 1 .054.3v.026-.001.911h.293l.002-.037zm-16.18-.002c0-.295.003-.589 0-.884a1.5 1.5 0 0 0-.036-.314l.002.01a.73.73 0 0 0-.454-.545 1.1 1.1 0 0 0-.598-.054l.007-.001a.78.78 0 0 0-.472.244l-.001.001a.82.82 0 0 0-.209.544c-.009.34-.005.68-.007 1.02l.005.016h.293v-.062q0-.459.002-.918v-.012c0-.143.049-.275.131-.38l-.001.001c.111-.137.263-.186.433-.194.268-.013.486.117.563.357.028.09.045.194.045.301.006.285.002.57.002.855v.052h.294v-.038zm7.012-1.698c0 .285.004.57-.002.855a1 1 0 0 1-.047.309l.002-.008c-.077.237-.292.366-.56.354-.193-.008-.359-.069-.469-.24a.64.64 0 0 1-.098-.34v-.008q-.002-.463 0-.927v-.052h-.297l-.002.031q-.002.451 0 .903.002.143.029.275l-.002-.009c.058.28.215.481.485.581a1.1 1.1 0 0 0 .572.045l-.007.001a.8.8 0 0 0 .406-.177l-.001.001a.8.8 0 0 0 .281-.618c.01-.333.004-.667.005-1.001l-.005-.034v.002h-.291zm-2.935 1.734v-1.044q0-.082.012-.162l-.001.006c.025-.159.103-.282.261-.334a.7.7 0 0 1 .185-.031h.001c.238-.009.403.108.453.321.015.064.019.131.028.2h.292c-.009-.08-.012-.158-.027-.234-.042-.218-.152-.39-.358-.486a.93.93 0 0 0-.56-.062.66.66 0 0 0-.411.223l-.001.001a.72.72 0 0 0-.166.459v.006c-.006.374-.004.749-.005 1.123l.004.016zm7.768-1.79h-.292v1.79l.026.002h.266zm-.146-.753h-.003a.21.21 0 0 0-.211.211v.01c0 .117.095.213.212.213h.004a.21.21 0 0 0 .211-.211v-.015a.21.21 0 0 0-.209-.209h-.005z"/>
    </symbol>
  </defs>
</svg>
